PathFileType	4	(X/Y/Z)	s08c0001.trc
DataRate	CameraRate	NumFrames	NumMarkers	Units	OrigDataRate	OrigDataStartFrame	OrigNumFrames
200	200	4	49	mm	200	250	2000
Frame#	Time	racr			lacr			c7			jug			rlel			rdr			llel			ldr			s2			lic			ric			lasi			rasi			rpsi			lpsi			rgt			lgt			rth1			rth2			rth3			rth4			rlfc			rmfc			rsh1			rsh2			rsh3			rsh4			rlmal			rmmal			rcal			rtoe			rmt5			rmt1			lth1			lth2			lth4			lth3			llfc			lmfc			llmal			lmmal			lcal			lmt1			lmt5			lsh1			lsh2			lsh3			lsh4			ltoe			
		X1	Y1	Z1	X2	Y2	Z2	X3	Y3	Z3	X4	Y4	Z4	X5	Y5	Z5	X6	Y6	Z6	X7	Y7	Z7	X8	Y8	Z8	X9	Y9	Z9	X10	Y10	Z10	X11	Y11	Z11	X12	Y12	Z12	X13	Y13	Z13	X14	Y14	Z14	X15	Y15	Z15	X16	Y16	Z16	X17	Y17	Z17	X18	Y18	Z18	X19	Y19	Z19	X20	Y20	Z20	X21	Y21	Z21	X22	Y22	Z22	X23	Y23	Z23	X24	Y24	Z24	X25	Y25	Z25	X26	Y26	Z26	X27	Y27	Z27	X28	Y28	Z28	X29	Y29	Z29	X30	Y30	Z30	X31	Y31	Z31	X32	Y32	Z32	X33	Y33	Z33	X34	Y34	Z34	X35	Y35	Z35	X36	Y36	Z36	X37	Y37	Z37	X38	Y38	Z38	X39	Y39	Z39	X40	Y40	Z40	X41	Y41	Z41	X42	Y42	Z42	X43	Y43	Z43	X44	Y44	Z44	X45	Y45	Z45	X46	Y46	Z46	X47	Y47	Z47	X48	Y48	Z48	X49	Y49	Z49	
250	1.2500	416.845886	1529.864990	596.846069	403.265564	1546.459595	200.382172	357.151581	1584.268433	397.907867	488.108429	1488.460815	395.292969	375.612213	1236.923218	683.106018	449.225647	960.826599	796.080444	380.765259	1246.992554	97.622856	437.170776	976.157104	-8.993603	321.546875	1028.826782	403.252350	468.432709	1094.931763	237.840820	475.231750	1100.008301	554.330933	517.370178	1037.068726	268.376251	530.299011	1033.928467	519.671875	343.463287	1068.411011	451.236511	341.949341	1076.391968	351.832520	417.549255	955.672729	576.141479	421.738953	944.074402	210.811096	430.584778	804.390869	592.379089	452.543945	718.717102	588.175903	489.499908	719.507690	579.866028	429.363281	635.176941	577.679993	434.067200	512.408691	558.942322	418.489960	500.049072	455.535675	395.386536	387.428619	593.570984	419.412048	301.390839	575.966980	396.766296	218.279739	569.411926	445.875610	306.509186	545.877930	392.336212	97.745514	555.701538	407.192871	122.406441	470.038147	321.359467	65.373558	507.966522	611.993164	79.116211	510.674957	535.352173	47.916031	577.151184	538.611206	47.840076	464.052185	438.726990	815.229858	188.583801	458.245636	730.078064	192.451233	494.506866	730.626282	201.246796	431.455414	645.587402	195.649124	426.864899	520.400513	216.921997	431.652191	496.865967	314.710419	381.732086	106.844742	221.474274	411.833710	126.644798	301.597504	325.055328	74.127068	264.380066	541.909790	47.318684	295.865845	528.664246	43.091835	181.195648	405.728058	394.113556	190.033188	420.173981	310.811279	207.466064	392.140411	226.360580	207.029434	441.642212	313.602600	239.688034	610.440369	81.851685	243.127686	
251	1.2550	416.859070	1529.879639	596.842773	403.269836	1546.457397	200.386169	357.146606	1584.250244	397.937042	488.118378	1488.471069	395.290771	375.655304	1236.921631	683.119873	449.283173	960.825745	796.073669	380.795990	1246.978271	97.621788	437.199554	976.143677	-8.956531	321.576202	1028.823242	403.276947	468.482025	1094.942017	237.873901	475.267456	1100.018066	554.365356	517.428833	1037.062744	268.417053	530.342773	1033.931274	519.705444	343.501953	1068.405518	451.234161	341.979736	1076.387573	351.852692	417.553009	955.670044	576.163513	421.775208	944.061829	210.810120	430.633484	804.384827	592.386658	452.559479	718.717285	588.192505	489.528015	719.498596	579.896545	429.714142	635.352295	577.959412	434.098297	512.419312	558.954529	418.549072	500.057861	455.560303	395.420563	387.407196	593.582520	419.440247	301.366119	575.951660	396.778381	218.265656	569.407593	445.991028	306.559723	545.924805	392.349518	97.732910	555.697083	407.181671	122.399368	470.024292	321.379974	65.370049	507.976654	612.004761	79.109116	510.679352	535.341187	47.914753	577.156799	538.627075	47.825859	464.056915	438.785156	815.244751	188.612656	458.290466	730.049927	192.517319	494.032349	730.333679	202.466019	431.507843	645.601196	195.667542	426.882080	520.395752	216.921524	431.674377	496.860016	314.724335	381.741486	106.847252	221.463058	411.833710	126.644806	301.597504	325.048889	74.136337	264.384064	541.919312	47.305149	295.863556	528.703369	43.099945	181.206833	405.752350	394.120453	190.033295	420.178833	310.801788	207.471786	392.157227	226.372726	207.037369	441.637756	313.608673	239.686752	610.432739	81.837234	243.129898	
252	1.2600	416.877045	1529.878662	596.852356	403.270752	1546.443359	200.386749	357.146790	1584.236328	397.944000	488.132874	1488.482666	395.303864	375.691223	1236.929810	683.139099	449.345825	960.835938	796.079773	380.797058	1246.964478	97.655266	437.245667	976.127930	-8.921287	321.614471	1028.819214	403.279175	468.546448	1094.935669	237.897400	475.324127	1100.006470	554.371155	517.470154	1037.059692	268.421906	530.358521	1033.929688	519.739136	343.524994	1068.401611	451.246674	342.029419	1076.406616	351.852722	417.583191	955.664368	576.196289	421.828949	944.051758	210.847534	430.658203	804.389832	592.401672	452.602875	718.727112	588.213196	489.559082	719.487122	579.913269	429.591827	635.254944	577.879395	434.113281	512.424500	558.951294	418.563507	500.053131	455.551270	395.443817	387.412720	593.595520	419.450500	301.379547	575.965393	396.779724	218.262527	569.412231	445.915985	306.520905	545.886169	392.340790	97.741890	555.707092	407.200378	122.391754	470.053864	321.397736	65.343994	507.970062	612.013550	79.111557	510.690430	535.318359	47.940323	577.151855	538.611206	47.840176	464.052063	438.828156	815.241882	188.632462	458.337189	730.044556	192.572113	494.576538	730.639160	201.325790	431.546722	645.589539	195.690170	426.931763	520.394409	216.933792	431.701141	496.864777	314.735626	381.731964	106.844887	221.474091	411.833710	126.644791	301.597504	325.042328	74.117233	264.397217	541.908081	47.309277	295.876312	528.706604	43.061943	181.193588	405.757446	394.114807	190.053253	420.173798	310.799530	207.477432	392.179504	226.380661	207.040314	441.664062	313.598877	239.710892	610.442993	81.822983	243.121231	
253	1.2650	416.895813	1529.891235	596.851685	403.249268	1546.455444	200.386169	357.145111	1584.225708	397.927826	488.136536	1488.489868	395.291473	375.721069	1236.932861	683.147034	449.401947	960.848206	796.084351	380.821014	1246.961304	97.671547	437.270294	976.112488	-8.886733	321.634125	1028.824097	403.301971	468.584503	1094.922852	237.922012	475.324432	1100.000366	554.418091	517.519714	1037.057373	268.457733	530.410889	1033.937500	519.768372	343.539795	1068.401001	451.280060	342.059784	1076.402100	351.872894	417.598145	955.680786	576.209351	421.869598	944.059570	210.865555	430.674652	804.382629	592.419373	452.619232	718.719910	588.233887	489.577667	719.494812	579.943420	429.685730	635.283447	577.969666	434.149445	512.420166	558.973267	418.597778	500.062225	455.560455	395.453033	387.419037	593.595032	419.463806	301.373505	575.958496	396.783966	218.249908	569.407715	445.962006	306.531921	545.888000	392.334625	97.719711	555.709839	407.200623	122.401138	470.041718	321.361816	65.377724	507.965851	612.000122	79.097435	510.686218	535.354004	47.932865	577.148743	538.634888	47.820503	464.058167	438.883514	815.246216	188.669693	458.401489	730.078735	192.541626	494.116852	730.341980	202.497223	431.584839	645.582153	195.701492	426.941559	520.384521	216.946899	431.707520	496.861176	314.771759	381.727814	106.849129	221.476395	411.843048	126.627968	301.595612	325.056610	74.133240	264.378967	541.905579	47.311386	295.877991	528.703735	43.064442	181.194336	405.766052	394.128143	190.049103	420.198486	310.827454	207.500305	392.160034	226.370773	207.037949	441.664856	313.576477	239.696014	610.417664	81.838173	243.135193	
